<svg version="1.0" xmlns="http://www.w3.org/2000/svg" width="1024.000000pt" height="1024.000000pt" viewBox="0 0 1024.000000 1024.000000" preserveAspectRatio="xMidYMid meet">
	<g transform="translate(0.000000,1024.000000) scale(0.100000,-0.100000)" fill="#000000" stroke="none" class="logo-svg">
<path d="M4780 8861 c-40 -7 -39 5 -20 -177 18 -168 5 -204 -70 -204 -66 0
-77 18 -109 178 -15 78 -31 145 -34 148 -3 3 -26 2 -51 -1 -56 -9 -56 -9 -21
-167 43 -198 54 -221 119 -252 78 -37 213 -2 257 66 19 31 20 42 14 188 -9
231 -10 235 -85 221z"/>
<path d="M5282 8731 c-44 -39 -107 -101 -139 -138 -32 -38 -80 -90 -107 -117
-57 -57 -52 -66 39 -66 69 0 73 2 104 53 20 32 27 37 50 33 14 -3 49 -8 76
-12 65 -9 85 -20 85 -47 0 -34 20 -54 61 -61 27 -5 40 -2 50 10 12 15 5 41
-50 203 -35 102 -69 192 -76 199 -10 12 -27 2 -93 -57z m63 -127 c8 -20 15
-39 15 -41 0 -6 -81 7 -93 14 -9 6 41 63 55 63 4 0 15 -16 23 -36z"/>
<path d="M5814 8643 c-154 -182 -224 -270 -224 -282 0 -11 16 -17 71 -26 33
-6 38 -4 59 27 39 57 43 58 120 30 l70 -25 0 -42 c0 -48 19 -71 68 -81 24 -5
33 -3 38 10 11 28 -16 470 -29 482 -7 7 -26 15 -43 18 -30 7 -35 2 -130 -111z
m94 -141 l-3 -39 -43 18 -43 19 43 57 43 57 3 -37 c2 -20 2 -54 0 -75z"/>
<path d="M4242 8737 c-19 -6 -40 -20 -48 -33 -12 -18 -58 -126 -89 -209 -6
-15 -15 2 -40 75 -17 52 -36 95 -41 95 -23 -1 -84 -30 -84 -41 0 -16 118 -351
137 -387 19 -37 33 -41 77 -23 42 17 45 33 14 87 -19 34 -20 43 -10 78 l12 39
88 -59 c48 -32 97 -59 110 -59 31 0 84 28 79 43 -2 6 -44 39 -93 72 -49 33
-100 68 -114 77 l-24 18 47 107 c26 60 47 114 47 121 0 14 -22 14 -68 -1z"/>
<path d="M6226 8608 c-26 -36 -19 -53 30 -76 53 -26 53 -23 -13 -155 -68 -138
-84 -182 -70 -201 7 -9 27 -19 45 -22 l32 -7 38 84 c20 46 53 117 72 156 l35
73 53 -25 53 -24 19 32 c11 18 20 37 20 43 0 11 -266 144 -287 144 -6 0 -19
-10 -27 -22z"/>
<path d="M3558 8414 c-16 -8 -28 -18 -28 -22 0 -25 102 -447 111 -456 10 -11
62 10 85 35 14 15 15 25 6 59 l-10 41 61 41 61 41 37 -21 c48 -28 53 -28 95 4
38 29 43 48 17 59 -10 3 -102 58 -204 121 -102 63 -190 114 -195 114 -5 -1
-21 -8 -36 -16z m192 -195 c0 -15 -53 -60 -60 -52 -4 5 -12 28 -19 52 -7 23
-15 50 -18 58 -4 9 14 2 46 -17 28 -17 51 -36 51 -41z"/>
<path d="M6645 8339 c-77 -22 -176 -157 -174 -238 1 -77 45 -143 120 -181 105
-54 251 14 310 144 70 155 -88 324 -256 275z m110 -103 c83 -35 71 -147 -23
-211 -58 -39 -112 -31 -140 22 -26 48 -9 105 50 159 49 47 63 50 113 30z"/>
<path d="M3244 8177 l-38 -34 13 -109 c7 -59 15 -121 18 -138 l6 -31 -33 40
c-50 59 -113 125 -120 125 -13 0 -70 -53 -70 -65 0 -11 257 -293 309 -339 21
-19 22 -19 56 14 19 19 35 36 35 39 0 4 -25 34 -56 68 -30 35 -52 68 -49 74 5
7 46 10 123 8 l115 -4 25 33 c13 17 22 38 19 45 -6 15 -144 37 -230 37 l-47 0
-1 68 c-2 109 -13 195 -26 199 -7 3 -29 -11 -49 -30z"/>
<path d="M6985 7939 c-77 -61 -156 -121 -177 -132 -43 -25 -47 -43 -17 -81 28
-36 50 -33 121 15 48 33 62 38 69 28 13 -21 11 -48 -12 -126 -21 -70 -21 -72
-3 -96 42 -56 69 -38 104 68 l20 60 55 -3 c93 -6 155 49 155 138 0 23 -7 55
-17 73 -16 31 -140 167 -153 167 -3 0 -69 -50 -145 -111z m185 -61 c36 -49 37
-64 8 -95 -31 -33 -56 -29 -101 19 l-40 42 43 38 c23 21 46 38 51 38 5 0 22
-19 39 -42z"/>
<path d="M4408 7943 c-28 -7 -23 -51 7 -65 51 -23 106 20 75 57 -12 14 -46 18
-82 8z"/>
<path d="M5258 7934 c-35 -18 -48 -62 -24 -76 24 -13 12 -42 -40 -105 -56 -66
-64 -100 -32 -138 46 -53 138 -22 138 46 0 28 -33 69 -56 69 -16 0 -24 24 -14
40 7 11 14 11 38 1 35 -15 59 -6 91 35 36 46 25 106 -26 132 -28 15 -42 15
-75 -4z m62 -59 c15 -19 -3 -45 -31 -45 -27 0 -33 19 -13 41 21 23 28 24 44 4z
m-75 -195 c0 -16 -6 -26 -18 -28 -19 -4 -32 20 -23 44 9 25 41 13 41 -16z"/>
<path d="M5754 7936 c-15 -12 -17 -18 -8 -33 27 -43 114 -38 114 6 0 38 -68
55 -106 27z"/>
<path d="M4993 7895 c-30 -30 -35 -40 -29 -67 3 -17 13 -39 22 -49 15 -17 4
-36 -14 -25 -12 7 -58 -43 -71 -77 -22 -57 37 -112 99 -92 11 3 48 45 81 93
34 48 77 106 96 130 40 49 40 74 1 43 -33 -26 -38 -26 -38 0 0 30 -53 79 -85
79 -18 0 -39 -12 -62 -35z m91 -48 c16 -25 -16 -56 -38 -37 -19 15 -20 32 -4
48 15 15 28 11 42 -11z m19 -60 c-4 -8 -28 -41 -53 -75 -46 -62 -74 -82 -92
-64 -15 15 60 110 93 117 15 4 33 13 40 21 15 18 23 18 12 1z"/>
<path d="M4090 7735 l0 -65 -70 0 -70 0 0 -35 0 -35 70 0 70 0 0 -70 0 -70 30
0 30 0 0 70 0 70 60 0 60 0 0 35 0 35 -60 0 -60 0 0 -35 c0 -32 -2 -35 -30
-35 -28 0 -30 3 -30 34 0 30 3 35 28 38 26 3 27 6 30 66 l3 62 -31 0 -30 0 0
-65z"/>
<path d="M6120 7736 c0 -50 4 -65 16 -70 30 -11 44 13 44 75 0 59 0 59 -30 59
l-30 0 0 -64z"/>
<path d="M4406 7767 c-10 -7 -16 -22 -14 -33 3 -16 12 -19 53 -19 40 0 50 4
53 18 8 41 -52 63 -92 34z"/>
<path d="M5755 7760 c-26 -29 -5 -50 51 -50 35 0 44 4 50 22 14 44 -66 67
-101 28z"/>
<path d="M5985 7658 c-2 -7 -3 -22 -1 -33 3 -18 11 -20 67 -20 l64 0 0 30 c0
30 0 30 -63 33 -44 2 -64 -1 -67 -10z"/>
<path d="M6180 7636 c0 -32 -3 -35 -32 -38 l-33 -3 0 -65 0 -65 33 -3 32 -3 0
70 0 71 71 0 70 0 -3 33 -3 32 -67 3 -68 3 0 -35z"/>
<path d="M2865 7538 c-33 -17 -45 -40 -45 -80 0 -40 30 -83 53 -75 22 7 57 70
57 102 0 18 -8 39 -18 48 -22 20 -21 20 -47 5z m29 -91 c-3 -9 -10 -17 -14
-17 -10 0 -18 31 -12 48 4 12 7 11 19 0 7 -8 11 -22 7 -31z"/>
<path d="M3013 7468 c-25 -27 -47 -68 -37 -68 9 0 68 18 103 32 l24 9 -23 24
c-29 31 -41 31 -67 3z"/>
<path d="M7286 7421 c-12 -19 13 -51 39 -51 20 0 25 -5 25 -25 0 -14 -4 -25
-10 -25 -5 0 -9 -10 -7 -22 1 -17 -4 -24 -20 -26 -28 -4 -32 24 -6 43 15 11
15 13 -5 19 -58 19 -86 -54 -36 -93 32 -25 52 -26 80 -3 51 41 71 134 35 166
-23 21 -86 32 -95 17z"/>
<path d="M3014 7376 c-9 -24 15 -56 42 -56 35 0 43 29 15 52 -28 22 -50 23
-57 4z"/>
<path d="M2613 7346 c-38 -17 -73 -69 -73 -109 0 -43 29 -96 61 -112 50 -26
105 -19 144 18 43 39 54 87 32 139 -26 62 -102 91 -164 64z m87 -66 c34 -34
25 -83 -22 -119 -14 -10 -21 -8 -47 15 -21 18 -31 37 -31 56 0 33 31 68 60 68
11 0 29 -9 40 -20z"/>
<path d="M2924 7334 c-17 -25 -17 -26 18 -61 61 -61 92 -23 43 50 -30 44 -39
45 -61 11z"/>
<path d="M7520 7323 c-55 -49 -51 -147 8 -193 58 -46 162 -11 191 63 12 33 12
42 -4 82 -20 54 -54 75 -119 75 -36 0 -52 -6 -76 -27z m126 -46 c21 -18 26
-29 20 -48 -10 -38 -33 -61 -62 -65 -54 -6 -85 75 -44 116 26 26 53 25 86 -3z"/>
<path d="M3665 7230 c-78 -25 -127 -67 -162 -138 l-28 -57 0 -1000 c0 -994 0
-1000 21 -1045 31 -67 68 -106 132 -137 l57 -28 469 -3 468 -3 -5 -32 c-3 -18
-15 -83 -27 -144 l-22 -113 -48 0 c-62 0 -98 -27 -106 -81 l-7 -39 -692 0
c-654 0 -694 -1 -715 -18 -17 -13 -21 -24 -16 -40 l7 -22 2129 0 2129 0 7 22
c5 16 1 27 -16 40 -21 17 -61 18 -715 18 -751 0 -705 -3 -705 51 0 11 -11 31
-25 44 -20 20 -34 25 -78 25 l-54 0 -27 132 c-15 72 -30 137 -33 144 -4 11 90
14 479 16 536 3 517 1 596 72 22 20 50 60 63 89 l24 52 0 1010 0 1010 -22 40
c-29 54 -78 99 -138 127 l-50 23 -1415 2 c-1371 2 -1417 1 -1475 -17z m2878
-94 c56 -20 80 -45 73 -76 -3 -14 -6 -407 -6 -875 0 -467 -3 -855 -8 -861 -14
-21 -198 -24 -1589 -25 l-1403 0 0 -105 c0 -115 11 -154 55 -194 l27 -25 1206
-7 c1745 -11 1702 -10 1672 -28 -22 -13 -202 -15 -1430 -18 -1525 -3 -1466 -4
-1518 51 -54 57 -52 19 -52 1054 0 636 4 971 11 996 13 48 67 102 116 115 25
6 518 10 1423 11 1144 0 1392 -2 1423 -13z m-1393 -1946 c27 -27 25 -66 -6
-96 -19 -20 -31 -24 -52 -19 -15 4 -33 11 -39 17 -18 15 -16 78 4 100 21 24
68 23 93 -2z m-376 -417 c-4 -16 -15 -35 -26 -44 -25 -20 -36 -18 207 -28 110
-4 181 -8 158 -9 -23 -1 -53 -6 -67 -12 -14 -5 -47 -12 -73 -16 -27 -3 -49
-10 -51 -15 -2 -5 -17 -9 -33 -9 -16 0 -29 -4 -29 -10 0 -5 -9 -10 -20 -10
-10 0 -42 -9 -70 -20 -27 -11 -50 -17 -50 -14 0 4 -7 1 -15 -6 -25 -20 -22 0
26 183 7 27 15 37 30 37 16 0 18 -5 13 -27z m951 -343 c4 -7 -200 -10 -605
-10 -405 0 -609 3 -605 10 4 6 217 10 605 10 388 0 601 -4 605 -10z"/>
<path d="M3702 7016 l-37 -34 -3 -726 c-2 -712 -3 -725 -22 -731 -18 -6 -20
-15 -20 -91 l0 -84 1410 -2 c776 -1 1440 -3 1478 -3 l67 0 0 805 c0 876 1 856
-56 885 -24 13 -222 15 -1404 15 l-1375 0 -38 -34z m2769 -73 c12 -13 14 -144
14 -757 l0 -741 -1361 -3 -1361 -2 -6 227 c-11 366 -8 1252 3 1274 11 19 36
19 1354 19 1237 0 1345 -1 1357 -17z"/>
<path d="M4519 6754 c-10 -11 -19 -28 -19 -37 0 -14 11 -17 73 -17 39 0 95 -3
123 -6 49 -6 50 -7 67 -54 9 -26 17 -50 17 -54 0 -3 -45 -6 -99 -6 -55 0 -102
-4 -106 -9 -3 -5 13 -60 36 -123 22 -62 67 -189 100 -283 34 -93 67 -180 75
-193 l15 -23 382 1 c211 1 387 4 393 8 10 8 216 513 211 519 -8 8 -227 35
-552 68 -192 20 -351 37 -353 40 -2 2 -18 43 -37 92 l-33 88 -137 5 c-128 5
-137 4 -156 -16z m344 -246 c70 -10 77 -14 77 -34 0 -12 3 -29 6 -38 5 -14 -9
-16 -114 -16 l-120 0 -16 47 c-9 26 -16 48 -16 50 0 7 111 2 183 -9z m251 -24
c45 -7 46 -8 46 -42 l0 -35 -71 6 c-39 3 -73 8 -75 10 -2 2 -7 18 -10 35 -6
31 -5 32 28 32 20 0 56 -3 82 -6z m215 -20 c59 -7 61 -8 61 -36 l0 -29 -82 3
-81 3 -1 33 c-1 36 -1 36 103 26z m228 -29 c6 -2 9 -13 6 -24 -5 -18 -13 -21
-59 -21 -54 0 -54 0 -54 31 l0 30 48 -6 c26 -4 52 -8 59 -10z m118 -37 c-4
-18 -25 -79 -47 -135 -30 -78 -44 -103 -58 -103 -41 0 -40 22 5 135 25 61 45
116 45 123 0 7 13 12 31 12 29 0 30 -1 24 -32z m-725 -73 l0 -35 -99 0 c-85 0
-99 2 -104 18 -2 9 -8 25 -12 35 -7 16 2 17 104 17 l111 0 0 -35z m210 -5 l0
-30 -75 0 -75 0 0 30 0 30 75 0 75 0 0 -30z m168 24 c49 -6 52 -8 52 -36 l0
-29 -77 3 c-66 3 -78 6 -81 21 -9 46 7 52 106 41z m192 -34 c0 -28 -2 -30 -40
-30 -38 0 -40 2 -40 30 0 28 2 30 40 30 38 0 40 -2 40 -30z m-562 -117 l3 -33
-81 0 c-77 0 -81 1 -90 26 -17 43 -14 45 78 42 l87 -3 3 -32z m202 2 l0 -35
-70 0 -70 0 0 35 0 35 70 0 70 0 0 -35z m208 -2 l3 -33 -70 0 -71 0 0 35 0 36
68 -3 67 -3 3 -32z m152 22 c0 -2 -5 -16 -12 -30 -9 -19 -19 -25 -45 -25 -30
0 -33 3 -33 30 0 29 2 30 45 30 25 0 45 -2 45 -5z m-560 -140 l0 -35 -59 0
c-57 0 -59 1 -70 31 -6 18 -11 34 -11 35 0 2 32 4 70 4 l70 0 0 -35z m210 -5
l0 -30 -70 0 -70 0 0 30 0 30 70 0 70 0 0 -30z m190 0 l0 -30 -65 0 -65 0 0
30 0 30 65 0 65 0 0 -30z m178 3 c-3 -27 -6 -28 -60 -31 l-58 -3 0 31 0 30 61
0 c60 0 60 0 57 -27z"/>
<path d="M4812 5888 c-16 -16 -15 -33 2 -47 10 -8 12 -24 9 -51 -10 -74 34
-130 104 -130 69 0 126 74 103 134 -5 15 -10 29 -10 32 0 2 70 4 155 4 l154 0
-6 -48 c-5 -44 -3 -52 25 -83 27 -30 36 -34 80 -34 39 0 56 5 76 24 31 29 43
83 27 119 -10 21 -10 27 3 34 22 12 20 35 -3 48 -29 15 -703 14 -719 -2z m141
-99 c15 -24 1 -49 -27 -49 -29 0 -44 33 -25 56 15 18 38 15 52 -7z m497 6 c19
-23 8 -50 -20 -50 -16 0 -26 6 -28 18 -4 18 14 47 28 47 4 0 13 -7 20 -15z"/>
<path d="M7538 6928 l-3 -43 -47 -3 c-46 -3 -48 -5 -48 -33 0 -28 2 -29 45
-29 l45 0 0 -55 c0 -54 0 -55 29 -55 29 0 30 2 33 53 l3 52 38 3 c34 3 37 6
37 33 0 27 -2 29 -40 29 l-40 0 0 45 c0 41 -2 45 -24 45 -22 0 -25 -5 -28 -42z"/>
<path d="M2680 6920 l0 -40 -40 0 c-38 0 -40 -2 -40 -30 0 -28 2 -30 40 -30
l40 0 0 -55 c0 -54 0 -55 30 -55 30 0 30 1 30 55 l0 55 40 0 c38 0 40 2 40 30
0 28 -2 30 -40 30 l-40 0 0 40 c0 38 -2 40 -30 40 -28 0 -30 -2 -30 -40z"/>
<path d="M2595 6441 c-11 -5 -29 -19 -40 -31 -19 -21 -20 -36 -20 -385 0 -354
1 -364 21 -392 l21 -28 279 -3 c153 -1 289 0 301 3 50 12 53 37 53 408 0 208
-4 356 -10 373 -20 57 -30 59 -320 61 -146 1 -274 -1 -285 -6z m515 -161 l0
-70 -240 0 -240 0 0 70 0 70 240 0 240 0 0 -70z m0 -220 l0 -60 -240 0 -240 0
0 60 0 60 240 0 240 0 0 -60z m-305 -216 c49 -50 53 -64 29 -89 -22 -21 -38
-14 -42 17 -2 14 -16 38 -32 53 -29 28 -30 28 -51 9 -15 -13 -19 -26 -15 -46
6 -30 -10 -38 -32 -16 -31 31 -7 85 48 107 40 16 47 13 95 -35z m234 2 c31
-31 42 -50 39 -67 -6 -42 -35 -35 -59 15 -16 36 -27 46 -45 46 -28 0 -29 3
-12 30 18 29 29 25 77 -24z m-154 14 c0 -22 -29 -18 -33 3 -3 14 1 18 15 15
10 -2 18 -10 18 -18z m225 11 c0 -6 -4 -13 -10 -16 -5 -3 -10 1 -10 9 0 9 5
16 10 16 6 0 10 -4 10 -9z m-125 -113 c26 -12 32 -47 9 -55 -16 -5 -44 25 -44
48 0 22 1 23 35 7z m-210 -17 c7 -24 -4 -51 -21 -51 -15 0 -47 54 -37 64 14
13 52 5 58 -13z m115 -26 c0 -8 -6 -15 -14 -15 -17 0 -28 14 -19 24 12 12 33
6 33 -9z m212 -7 c-6 -6 -15 -8 -19 -4 -4 4 -1 11 7 16 19 12 27 3 12 -12z"/>
<path d="M7064 6440 c-53 -21 -54 -26 -54 -413 0 -376 3 -405 45 -421 9 -3
156 -6 326 -6 l310 0 24 25 25 24 0 371 c0 223 -4 379 -10 390 -5 10 -24 23
-41 29 -38 13 -593 14 -625 1z m356 -145 l0 -65 -160 0 -160 0 0 65 0 65 160
0 160 0 0 -65z m143 57 c3 -4 0 -36 -6 -71 -10 -51 -16 -65 -34 -72 -23 -8
-23 -7 -23 71 l0 80 29 0 c17 0 32 -3 34 -8z m-321 -272 l-4 -50 -69 0 -69 0
0 50 0 50 73 0 72 0 -3 -50z m208 0 l0 -50 -65 0 -65 0 0 50 0 50 65 0 65 0 0
-50z m203 14 c10 -58 3 -64 -69 -64 l-64 0 0 50 0 50 64 0 63 0 6 -36z m-408
-179 l0 -50 -70 0 -70 0 -3 39 c-5 63 -1 67 75 64 l68 -3 0 -50z m203 -2 l3
-53 -65 0 -66 0 0 55 0 56 63 -3 62 -3 3 -52z m202 2 l0 -55 -65 0 -65 0 0 55
0 55 65 0 65 0 0 -55z m-405 -170 l0 -50 -70 0 -70 0 -3 53 -3 53 73 -3 73 -3
0 -50z m205 0 l0 -55 -65 0 -65 0 0 55 0 55 65 0 65 0 0 -55z m200 0 l0 -55
-65 0 -65 0 0 55 0 55 65 0 65 0 0 -55z"/>
<path d="M2181 6155 c-17 -20 -31 -41 -31 -48 0 -22 66 -87 88 -87 24 0 82 63
82 89 0 28 -54 81 -83 81 -16 0 -36 -13 -56 -35z"/>
<path d="M7951 6155 c-17 -20 -31 -42 -31 -50 0 -22 65 -85 88 -85 23 0 82 63
82 88 0 26 -58 82 -84 82 -15 0 -36 -14 -55 -35z"/>
<path d="M2860 5351 c-133 -43 -210 -149 -210 -287 0 -121 68 -227 179 -278
67 -30 180 -29 241 2 64 33 125 96 152 156 31 72 32 174 0 238 -29 59 -89 121
-144 149 -46 24 -171 36 -218 20z m187 -99 c74 -39 113 -102 113 -187 0 -168
-172 -268 -317 -185 -115 66 -145 214 -63 317 63 80 174 102 267 55z"/>
<path d="M2866 5207 c-46 -26 -86 -93 -86 -144 0 -108 108 -190 212 -162 78
21 139 114 124 191 -21 114 -149 173 -250 115z m143 -73 c40 -33 42 -80 6
-122 -47 -57 -128 -48 -155 17 -39 94 70 172 149 105z"/>
<path d="M2912 5104 c-26 -18 -28 -46 -6 -68 22 -23 60 -20 78 6 20 29 20 34
-4 58 -24 24 -38 25 -68 4z"/>
<path d="M7182 5339 c-72 -28 -145 -102 -168 -171 -63 -183 41 -360 233 -399
53 -11 70 -10 124 5 142 39 225 145 223 286 -1 113 -66 220 -167 272 -62 31
-175 35 -245 7z m228 -103 l42 -28 -59 -28 c-33 -15 -92 -56 -132 -91 -94 -82
-120 -99 -155 -99 l-28 0 4 74 c3 63 8 81 33 117 45 64 104 91 186 87 52 -3
75 -10 109 -32z m85 -136 c0 -9 -11 -16 -25 -18 -35 -4 -80 -23 -80 -33 0 -5
9 -14 20 -21 15 -10 20 -24 20 -58 0 -88 -46 -112 -126 -65 -50 29 -84 26
-113 -11 -17 -21 -20 -22 -40 -8 -30 21 -27 31 18 54 22 11 70 47 108 80 37
33 86 69 108 80 46 24 110 24 110 0z"/>
<path d="M3315 4604 c-20 -20 -16 -53 8 -68 36 -23 75 35 47 70 -16 18 -35 18
-55 -2z"/>
<path d="M6902 4608 c-13 -13 -15 -37 -6 -62 7 -19 45 -21 62 -4 26 26 7 78
-28 78 -9 0 -21 -5 -28 -12z"/>
<path d="M6630 4565 l0 -45 90 0 90 0 0 45 0 45 -90 0 -90 0 0 -45z"/>
<path d="M3462 4568 c3 -33 4 -33 61 -36 l57 -3 0 36 0 35 -61 0 -60 0 3 -32z"/>
<path d="M3646 4584 c-9 -24 12 -54 38 -54 13 0 34 8 47 19 20 16 21 21 10 35
-18 21 -87 22 -95 0z"/>
<path d="M6452 4588 c-30 -30 5 -58 74 -58 l54 0 0 35 0 35 -58 0 c-32 0 -63
-5 -70 -12z"/>
<path d="M3985 4013 c-22 -69 -41 -132 -43 -139 -3 -11 65 -41 72 -32 2 1 8
17 13 33 10 30 11 30 71 27 57 -4 64 -2 92 26 24 25 30 39 30 75 0 38 -5 49
-30 70 -16 14 -54 33 -85 41 -30 9 -60 19 -67 21 -9 4 -25 -33 -53 -122z m139
14 c28 -21 17 -52 -19 -52 -27 0 -30 4 -33 33 -3 26 0 32 15 32 11 0 27 -6 37
-13z"/>
<path d="M6123 4098 c-18 -5 -33 -12 -33 -16 0 -12 69 -255 74 -259 6 -6 76 8
76 16 0 15 -72 256 -78 262 -4 3 -22 2 -39 -3z"/>
<path d="M3706 4085 c-9 -9 -16 -25 -16 -35 0 -48 69 -66 96 -25 30 46 -40 99
-80 60z"/>
<path d="M6420 4081 c-14 -27 -13 -47 6 -65 24 -24 61 -20 80 9 15 23 15 27 0
50 -21 31 -70 35 -86 6z"/>
<path d="M5882 4039 c-18 -3 -34 -8 -36 -10 -2 -2 9 -65 23 -139 29 -146 24
-139 87 -125 l22 5 -29 136 c-15 75 -29 137 -31 138 -2 2 -18 -1 -36 -5z"/>
<path d="M4381 4003 c-43 -164 -59 -239 -53 -245 4 -4 22 -10 39 -14 29 -6 33
-4 38 22 19 82 28 84 51 10 16 -52 19 -54 56 -58 21 -2 40 -2 42 0 2 1 -4 22
-12 45 l-15 42 36 37 c77 76 32 156 -103 183 -19 3 -43 9 -52 11 -13 4 -19 -4
-27 -33z m120 -63 c21 -12 26 -49 7 -51 -23 -2 -53 3 -60 10 -12 11 3 51 19
51 8 0 23 -5 34 -10z"/>
<path d="M5628 3993 c-33 -5 -32 5 -13 -130 23 -157 21 -153 53 -153 51 0 52
5 31 150 -10 74 -19 136 -19 138 0 2 -10 1 -52 -5z"/>
<path d="M4767 3909 c-4 -35 -10 -101 -13 -146 l-7 -83 50 0 c28 0 78 -3 112
-7 l62 -6 -3 34 c-3 33 -4 34 -63 43 -95 14 -101 49 -7 44 l57 -3 0 30 c0 30
-1 30 -57 33 -51 3 -58 5 -58 24 0 20 4 20 65 14 l65 -7 0 41 c0 40 0 40 -39
40 -21 0 -65 3 -98 6 l-60 7 -6 -64z"/>
<path d="M5363 3958 c-5 -7 -22 -35 -37 -61 l-28 -49 -24 23 c-13 12 -34 37
-46 55 -18 27 -30 34 -55 34 l-33 0 0 -62 c0 -35 3 -100 7 -145 l6 -83 39 0
40 0 -7 65 c-4 36 -5 65 -2 65 3 0 22 -23 42 -51 l38 -50 29 51 c16 29 31 50
34 48 2 -2 7 -29 11 -59 l8 -54 39 -3 39 -3 -6 53 c-4 29 -9 95 -13 146 l-7
92 -32 0 c-18 0 -37 -6 -42 -12z"/>
<path d="M4346 3454 c-22 -21 -20 -50 4 -74 24 -24 38 -25 68 -4 24 16 28 44
12 75 -13 23 -62 26 -84 3z"/>
<path d="M5805 3446 c-19 -28 -9 -58 26 -76 45 -25 94 51 57 88 -21 21 -66 14
-83 -12z"/>
<path d="M4698 3419 c-22 -12 -24 -62 -4 -79 8 -6 25 -10 38 -8 18 2 24 10 26
36 5 52 -21 74 -60 51z"/>
<path d="M4850 3410 c-23 -23 -24 -33 -10 -61 12 -21 50 -25 68 -7 17 17 15
54 -4 72 -20 21 -30 20 -54 -4z"/>
<path d="M5010 3410 c-25 -25 -25 -45 1 -71 18 -18 23 -19 42 -6 28 18 33 53
11 78 -22 24 -29 24 -54 -1z"/>
<path d="M5165 3410 c-37 -40 9 -105 53 -74 27 19 28 55 4 77 -24 22 -35 21
-57 -3z"/>
<path d="M5325 3410 c-38 -42 18 -105 61 -70 20 17 18 54 -4 73 -24 22 -35 21
-57 -3z"/>
<path d="M5487 3412 c-32 -36 -15 -82 30 -82 21 0 43 25 43 49 0 13 -36 51
-48 51 -5 0 -16 -8 -25 -18z"/>

</g>
</svg>
